<svg xmlns="http://www.w3.org/2000/svg" width="470" height="470" viewBox="0 0 470 470">
  <defs>
    <linearGradient id="tileGrad" x1="0" y1="0" x2="0" y2="1">
      <stop offset="0%" stop-color="#f3e9d8"/>
      <stop offset="100%" stop-color="#e6d5b8"/>
    </linearGradient>
    <linearGradient id="selGrad" x1="0" y1="0" x2="0" y2="1">
      <stop offset="0%" stop-color="#ffe082"/>
      <stop offset="100%" stop-color="#ffca28"/>
    </linearGradient>
    <filter id="shadow" x="-10%" y="-10%" width="120%" height="130%">
      <feDropShadow dx="0" dy="4" stdDeviation="2" flood-color="#c9b896" flood-opacity="0.8"/>
    </filter>
    <filter id="emptyShadow" x="-10%" y="-10%" width="120%" height="130%">
      <feDropShadow dx="0" dy="2" stdDeviation="1" flood-color="#d4d0c8" flood-opacity="0.8"/>
    </filter>
  </defs>

  <rect x="0" y="0" width="450" height="450" rx="20" fill="#e0ddd5"/>

  <!-- row 0 -->
  <rect x="15" y="15" width="80" height="80" rx="14" fill="#faf8f3" filter="url(#emptyShadow)"/>
  <rect x="105" y="15" width="80" height="80" rx="14" fill="#faf8f3" filter="url(#emptyShadow)"/>
  <rect x="195" y="15" width="80" height="80" rx="14" fill="#faf8f3" filter="url(#emptyShadow)"/>
  <rect x="285" y="15" width="80" height="80" rx="14" fill="#faf8f3" filter="url(#emptyShadow)"/>
  <rect x="375" y="15" width="80" height="80" rx="14" fill="#faf8f3" filter="url(#emptyShadow)"/>

  <!-- row 1 -->
  <rect x="15" y="105" width="80" height="80" rx="14" fill="#faf8f3" filter="url(#emptyShadow)"/>
  <rect x="105" y="105" width="80" height="80" rx="14" fill="url(#tileGrad)" filter="url(#shadow)"/>
  <rect x="195" y="105" width="80" height="80" rx="14" fill="#faf8f3" filter="url(#emptyShadow)"/>
  <rect x="285" y="105" width="80" height="80" rx="14" fill="#faf8f3" filter="url(#emptyShadow)"/>
  <rect x="375" y="105" width="80" height="80" rx="14" fill="#faf8f3" filter="url(#emptyShadow)"/>
  <text x="145" y="160" text-anchor="middle" font-family="Segoe UI, Roboto, Helvetica, Arial, sans-serif" font-size="36" font-weight="700" fill="#2c2c2c">Т</text>

  <!-- row 2 (initial word + selected path) -->
  <rect x="15" y="195" width="80" height="80" rx="14" fill="url(#selGrad)" filter="url(#shadow)"/>
  <rect x="105" y="195" width="80" height="80" rx="14" fill="url(#selGrad)" filter="url(#shadow)"/>
  <rect x="195" y="195" width="80" height="80" rx="14" fill="url(#selGrad)" filter="url(#shadow)"/>
  <rect x="285" y="195" width="80" height="80" rx="14" fill="url(#selGrad)" filter="url(#shadow)"/>
  <rect x="375" y="195" width="80" height="80" rx="14" fill="url(#tileGrad)" filter="url(#shadow)"/>

  <!-- selection ring -->
  <rect x="17" y="197" width="76" height="76" rx="12" fill="none" stroke="#4a90d9" stroke-width="3"/>
  <rect x="107" y="197" width="76" height="76" rx="12" fill="none" stroke="#4a90d9" stroke-width="3"/>
  <rect x="197" y="197" width="76" height="76" rx="12" fill="none" stroke="#4a90d9" stroke-width="3"/>
  <rect x="287" y="197" width="76" height="76" rx="12" fill="none" stroke="#4a90d9" stroke-width="3"/>

  <text x="55" y="250" text-anchor="middle" font-family="Segoe UI, Roboto, Helvetica, Arial, sans-serif" font-size="36" font-weight="700" fill="#2c2c2c">С</text>
  <text x="145" y="250" text-anchor="middle" font-family="Segoe UI, Roboto, Helvetica, Arial, sans-serif" font-size="36" font-weight="700" fill="#2c2c2c">Л</text>
  <text x="235" y="250" text-anchor="middle" font-family="Segoe UI, Roboto, Helvetica, Arial, sans-serif" font-size="36" font-weight="700" fill="#2c2c2c">О</text>
  <text x="325" y="250" text-anchor="middle" font-family="Segoe UI, Roboto, Helvetica, Arial, sans-serif" font-size="36" font-weight="700" fill="#2c2c2c">В</text>
  <text x="415" y="250" text-anchor="middle" font-family="Segoe UI, Roboto, Helvetica, Arial, sans-serif" font-size="36" font-weight="700" fill="#2c2c2c">О</text>

  <!-- row 3 (new letter) -->
  <rect x="15" y="285" width="80" height="80" rx="14" fill="#faf8f3" filter="url(#emptyShadow)"/>
  <rect x="105" y="285" width="80" height="80" rx="14" fill="#faf8f3" filter="url(#emptyShadow)"/>
  <rect x="195" y="285" width="80" height="80" rx="14" fill="#faf8f3" filter="url(#emptyShadow)"/>
  <rect x="285" y="285" width="80" height="80" rx="14" fill="#e3f2fd" stroke="#4a90d9" stroke-width="2" stroke-dasharray="6,4" filter="url(#emptyShadow)"/>
  <rect x="375" y="285" width="80" height="80" rx="14" fill="#faf8f3" filter="url(#emptyShadow)"/>
  <text x="325" y="340" text-anchor="middle" font-family="Segoe UI, Roboto, Helvetica, Arial, sans-serif" font-size="36" font-weight="700" fill="#1565c0">Е</text>

  <!-- row 4 -->
  <rect x="15" y="375" width="80" height="80" rx="14" fill="#faf8f3" filter="url(#emptyShadow)"/>
  <rect x="105" y="375" width="80" height="80" rx="14" fill="#faf8f3" filter="url(#emptyShadow)"/>
  <rect x="195" y="375" width="80" height="80" rx="14" fill="#faf8f3" filter="url(#emptyShadow)"/>
  <rect x="285" y="375" width="80" height="80" rx="14" fill="#faf8f3" filter="url(#emptyShadow)"/>
  <rect x="375" y="375" width="80" height="80" rx="14" fill="#faf8f3" filter="url(#emptyShadow)"/>

  <!-- Word label -->
  <text x="225" y="430" text-anchor="middle" font-family="Segoe UI, Roboto, Helvetica, Arial, sans-serif" font-size="14" fill="#888" letter-spacing="0.5">Ваше слово</text>
  <text x="225" y="460" text-anchor="middle" font-family="Segoe UI, Roboto, Helvetica, Arial, sans-serif" font-size="26" font-weight="700" fill="#3d3d3d" letter-spacing="3">СЛОВО</text>
</svg>