<svg xmlns="http://www.w3.org/2000/svg" style="display:none">
  <defs>
    <symbol id="icon-timer" viewBox="0 0 24 24" fill="none" stroke="currentColor" stroke-width="2.5" stroke-linecap="round" stroke-linejoin="round">
      <circle cx="12" cy="12" r="10"/>
      <polyline points="12 6 12 12 16 14"/>
    </symbol>

    <symbol id="icon-star" viewBox="0 0 24 24" fill="currentColor" stroke="none">
      <polygon points="12 2 15.09 8.26 22 9.27 17 14.14 18.18 21.02 12 17.77 5.82 21.02 7 14.14 2 9.27 8.91 8.26 12 2"/>
    </symbol>

    <symbol id="icon-skip" viewBox="0 0 24 24" fill="none" stroke="currentColor" stroke-width="2.5" stroke-linecap="round" stroke-linejoin="round">
      <polygon points="5 4 15 12 5 20 5 4"/>
      <line x1="19" y1="5" x2="19" y2="19"/>
    </symbol>

    <symbol id="icon-send" viewBox="0 0 24 24" fill="none" stroke="currentColor" stroke-width="2.5" stroke-linecap="round" stroke-linejoin="round">
      <line x1="22" y1="2" x2="11" y2="13"/>
      <polygon points="22 2 15 22 11 13 2 9 22 2"/>
    </symbol>

    <symbol id="icon-user" viewBox="0 0 24 24" fill="none" stroke="currentColor" stroke-width="2.5" stroke-linecap="round" stroke-linejoin="round">
      <path d="M20 21v-2a4 4 0 0 0-4-4H8a4 4 0 0 0-4 4v2"/>
      <circle cx="12" cy="7" r="4"/>
    </symbol>

    <symbol id="icon-crown" viewBox="0 0 24 24" fill="none" stroke="currentColor" stroke-width="2.5" stroke-linecap="round" stroke-linejoin="round">
      <polygon points="12 2 15.09 8.26 22 9.27 17 14.14 18.18 21.02 12 17.77 5.82 21.02 7 14.14 2 9.27 8.91 8.26 12 2"/>
    </symbol>

    <symbol id="icon-volume" viewBox="0 0 24 24" fill="none" stroke="currentColor" stroke-width="2.5" stroke-linecap="round" stroke-linejoin="round">
      <polygon points="11 5 6 9 2 9 2 15 6 15 11 19 11 5"/>
      <path d="M15.54 8.46a5 5 0 0 1 0 7.07"/>
    </symbol>

    <symbol id="icon-volume-off" viewBox="0 0 24 24" fill="none" stroke="currentColor" stroke-width="2.5" stroke-linecap="round" stroke-linejoin="round">
      <polygon points="11 5 6 9 2 9 2 15 6 15 11 19 11 5"/>
      <line x1="23" y1="9" x2="17" y2="15"/>
      <line x1="17" y1="9" x2="23" y2="15"/>
    </symbol>
  </defs>
</svg>
